<?xml version="1.0" standalone="no"?>
<!DOCTYPE svg PUBLIC "-//W3C//DTD SVG 20010904//EN"
 "http://www.w3.org/TR/2001/REC-SVG-20010904/DTD/svg10.dtd">
<svg version="1.0" xmlns="http://www.w3.org/2000/svg"
 width="700.000000pt" height="700.000000pt" viewBox="0 0 700.000000 700.000000"
 preserveAspectRatio="xMidYMid meet">
<metadata>
Created by potrace 1.14, written by Peter Selinger 2001-2017
</metadata>
<g transform="translate(0.000000,700.000000) scale(0.100000,-0.100000)"
fill="#000000" stroke="none">
<path d="M1985 6981 c-6 -5 -26 -18 -45 -28 -19 -11 -57 -32 -85 -48 -27 -15
-79 -43 -115 -63 -36 -19 -84 -48 -107 -64 -23 -15 -44 -28 -47 -28 -3 0 -31
-18 -62 -40 -31 -22 -62 -37 -68 -33 -6 3 -8 3 -4 -1 3 -4 -42 -44 -100 -88
-116 -88 -198 -156 -248 -203 -17 -16 -54 -51 -82 -77 -28 -27 -49 -48 -46
-48 3 0 -14 -20 -38 -45 -24 -25 -47 -50 -53 -57 -5 -7 -28 -35 -51 -63 -22
-27 -65 -86 -95 -130 -30 -44 -56 -82 -59 -85 -3 -3 -19 -31 -35 -62 -16 -31
-34 -54 -39 -51 -5 3 -6 1 -2 -5 4 -6 -6 -37 -23 -69 -42 -82 -65 -138 -91
-218 -12 -38 -27 -76 -33 -82 -5 -7 -7 -13 -4 -13 3 0 1 -15 -4 -32 -6 -18
-12 -41 -14 -51 -2 -10 -6 -26 -9 -35 -3 -9 -8 -39 -11 -67 -4 -27 -10 -65
-15 -84 -5 -19 -7 -38 -4 -43 3 -4 1 -8 -3 -8 -5 0 -7 -19 -5 -41 3 -31 1 -40
-8 -34 -9 6 -9 3 -1 -12 6 -11 8 -23 5 -26 -15 -14 -4 -312 15 -444 5 -34 4
-56 -3 -64 -8 -9 -8 -10 0 -6 8 5 14 -11 19 -46 4 -28 9 -61 11 -72 3 -11 6
-29 8 -40 2 -11 6 -27 9 -35 3 -8 8 -28 12 -45 3 -16 17 -67 31 -113 14 -46
23 -90 20 -98 -3 -8 -2 -13 3 -10 8 5 24 -32 25 -59 1 -5 3 -12 6 -15 12 -12
39 -103 33 -113 -3 -5 -1 -7 4 -4 6 4 14 0 17 -9 4 -10 2 -13 -7 -8 -6 4 -5
-1 4 -12 8 -10 28 -48 43 -84 15 -36 59 -127 97 -204 38 -76 66 -143 63 -147
-3 -5 0 -8 8 -7 7 2 12 -5 12 -14 -1 -10 2 -16 6 -13 10 6 32 -44 24 -56 -3
-5 0 -8 8 -7 7 2 12 -5 12 -14 -1 -10 2 -16 6 -13 4 2 19 -17 34 -43 35 -63
50 -86 57 -92 8 -8 22 -44 20 -53 -1 -5 3 -6 9 -2 5 3 16 -6 22 -22 7 -15 19
-35 26 -43 21 -24 112 -150 112 -155 0 -3 8 -13 18 -24 9 -10 28 -34 42 -52
54 -72 160 -183 216 -226 72 -56 90 -70 114 -93 14 -13 27 -24 30 -23 3 0 39
-24 80 -53 41 -30 70 -54 65 -55 -6 -1 1 -4 15 -8 14 -4 24 -13 23 -19 -2 -6
4 -9 12 -6 8 4 15 1 15 -5 0 -6 4 -11 9 -11 17 0 181 -112 176 -121 -3 -4 0
-11 6 -15 8 -4 9 -3 5 4 -4 7 -2 12 3 12 6 0 11 -4 11 -10 0 -5 7 -10 15 -10
8 0 15 -4 15 -8 0 -5 18 -18 40 -31 22 -12 40 -27 40 -32 0 -6 4 -8 9 -5 16
10 33 -23 29 -54 -3 -16 -1 -30 4 -30 5 0 8 -15 6 -33 -2 -26 -7 -31 -23 -29
-16 2 -17 1 -5 -7 8 -5 18 -7 22 -5 4 3 9 -5 9 -18 5 -100 7 -133 8 -133 2 0
9 -111 16 -275 3 -69 8 -159 10 -200 2 -41 7 -128 9 -194 3 -65 7 -121 10
-124 3 -2 1 -13 -5 -23 -5 -11 -6 -19 -2 -19 4 0 8 -17 9 -38 3 -142 15 -437
19 -440 2 -3 0 -14 -6 -25 -6 -10 -7 -17 -2 -14 5 3 10 -31 11 -76 2 -45 4
-83 6 -84 2 -2 101 -3 221 -3 158 0 223 -4 234 -13 9 -7 12 -8 8 -1 -4 7 2 11
18 11 15 0 22 -4 18 -11 -3 -6 0 -6 8 1 15 15 33 17 25 4 -7 -11 13 -9 32 2 7
5 12 3 12 -5 0 -9 3 -9 10 2 9 13 10 13 11 0 1 -8 0 -19 -1 -25 -1 -5 2 -6 7
-2 4 5 8 14 8 20 0 13 76 17 117 6 15 -4 30 -4 33 1 3 5 18 5 33 1 32 -10 62
-8 81 3 10 7 12 3 6 -15 -6 -21 -6 -22 6 -7 8 9 33 18 56 21 42 4 55 -6 57
-48 1 -5 4 -10 8 -10 4 0 13 -9 21 -19 11 -15 16 -16 22 -6 5 8 4 11 -2 7 -6
-4 -14 0 -17 9 -3 8 -11 12 -17 8 -7 -4 -10 -1 -7 7 3 8 2 21 -2 29 -7 13 1
15 48 16 49 1 53 0 37 -12 -15 -11 -20 -11 -26 -2 -6 10 -6 -35 0 -50 0 -1 10
2 22 8 12 7 18 17 15 27 -4 9 -1 13 6 10 7 -2 12 -11 10 -20 -4 -21 17 -32 31
-17 9 10 8 12 -5 7 -19 -7 -25 8 -8 18 18 11 42 -15 29 -31 -8 -9 -7 -18 1
-31 10 -16 10 -16 5 4 -3 12 -1 24 5 28 6 3 10 -4 11 -17 1 -18 2 -19 6 -5 3
11 -5 29 -18 43 -12 13 -18 24 -11 24 14 0 42 -28 42 -43 0 -7 9 1 19 16 10
16 21 27 24 25 3 -2 8 -1 11 2 3 4 -6 6 -20 6 -16 0 -23 -5 -20 -13 3 -7 1
-15 -4 -18 -9 -5 -14 6 -12 26 1 3 -19 5 -44 4 -24 -1 -44 1 -44 5 0 11 424 7
432 -5 5 -7 8 -7 8 1 0 15 90 15 90 0 0 -6 5 -4 11 4 8 11 12 12 16 3 2 -7 9
-13 14 -13 6 0 7 4 4 10 -3 5 1 10 9 10 9 0 16 -4 16 -10 0 -5 5 -10 11 -10 5
0 7 4 4 10 -8 13 156 10 174 -4 9 -6 12 -7 9 -1 -4 7 37 11 123 12 71 1 134 5
139 8 5 3 12 1 15 -5 5 -8 11 -8 20 0 7 6 17 10 21 8 18 -4 73 14 84 28 7 7
16 11 21 8 5 -3 9 -2 8 3 -3 13 12 43 20 39 7 -5 7 8 -5 256 -5 113 -4 158 4
158 6 0 9 6 6 13 -3 8 0 34 6 58 6 24 12 52 15 62 10 43 17 57 26 52 5 -3 6 1
3 9 -3 8 4 24 15 35 12 12 18 21 13 21 -7 0 58 59 68 61 3 1 16 3 30 4 14 1
32 5 41 9 9 4 41 8 72 9 31 1 57 5 57 9 0 4 8 7 18 6 17 0 257 11 257 12 0 1
48 2 108 3 59 1 107 -2 107 -6 0 -4 8 -3 19 2 10 6 20 8 23 6 2 -3 55 -7 116
-10 102 -4 112 -3 112 13 0 13 0 1558 0 1697 l0 31 -77 -8 c-43 -4 -154 -10
-247 -14 -138 -4 -167 -3 -160 8 6 11 5 11 -9 0 -25 -21 -293 -9 -357 15 -8 3
-24 8 -35 10 -11 2 -25 11 -32 19 -13 18 -13 91 1 113 7 10 6 12 -4 6 -9 -6
-10 -2 -5 16 9 29 4 25 44 34 27 6 32 4 26 -6 -6 -9 -2 -8 11 2 23 20 209 63
225 53 7 -4 9 -3 6 3 -4 6 5 13 21 16 29 6 34 7 101 26 23 7 50 10 58 7 8 -3
11 -2 8 4 -7 11 93 42 109 33 6 -3 8 -2 3 2 -6 7 29 25 78 39 6 2 33 13 60 26
28 12 56 23 63 23 6 0 12 5 12 10 0 5 9 7 21 4 12 -3 18 -3 15 0 -10 10 94 62
112 57 12 -4 13 -3 4 3 -9 7 -2 14 23 26 19 9 36 16 38 14 2 -1 18 10 35 25
18 15 41 29 52 33 11 3 20 11 20 16 0 5 5 9 11 9 6 0 30 16 53 35 24 19 45 35
48 35 3 0 28 20 54 45 27 25 55 43 62 40 7 -3 10 0 7 5 -3 6 22 39 57 74 74
74 105 109 136 153 15 22 28 30 40 27 13 -5 14 -4 4 4 -11 7 -5 22 30 73 48
71 93 150 109 191 6 16 16 25 22 21 6 -3 7 -1 3 5 -3 6 5 35 20 64 25 50 39
112 23 103 -4 -3 -15 8 -24 23 -10 15 -29 39 -42 54 -15 16 -22 31 -18 39 5 7
4 10 -3 5 -6 -3 -16 3 -22 14 -6 12 -19 29 -28 39 -66 69 -137 156 -136 167 1
8 -2 12 -6 9 -4 -3 -55 41 -113 98 -57 56 -130 122 -161 146 -31 24 -54 47
-51 51 3 4 -3 7 -13 6 -9 0 -16 5 -14 12 1 8 -1 11 -6 8 -5 -3 -18 4 -30 14
-12 11 -26 20 -31 20 -6 0 -15 8 -20 18 -6 9 -11 13 -11 8 0 -5 -7 -3 -15 4
-8 7 -12 16 -9 21 3 5 -2 6 -10 3 -8 -3 -24 4 -35 15 -12 12 -21 19 -21 16 0
-3 -17 5 -37 18 -46 29 -218 117 -290 149 -28 12 -49 26 -47 30 3 4 -2 5 -10
2 -8 -3 -21 -2 -28 2 -7 5 -15 9 -18 10 -3 0 -12 3 -20 7 -8 3 -44 15 -80 27
-36 11 -72 24 -80 27 -8 3 -22 7 -30 9 -9 2 -45 11 -80 20 -36 9 -80 18 -97
21 -18 3 -33 8 -33 12 0 3 -12 6 -27 7 -49 2 -93 8 -93 14 0 3 -21 6 -48 8
-26 1 -56 4 -67 6 -11 3 -37 5 -57 5 -31 1 -36 4 -31 19 7 16 6 16 -11 -1 -10
-9 -21 -15 -25 -12 -25 15 -559 24 -582 9 -8 -5 -10 -3 -4 7 7 11 6 12 -6 2
-8 -7 -45 -11 -91 -10 -42 1 -74 -1 -72 -4 4 -6 -56 -12 -148 -13 -25 -1 -44
-4 -41 -8 2 -5 -11 -8 -29 -9 -18 0 -44 -2 -58 -4 -14 -3 -59 -9 -100 -16 -41
-6 -97 -15 -125 -20 -27 -5 -68 -11 -90 -14 -22 -4 -51 -8 -65 -11 -14 -3 -32
-6 -40 -8 -8 -1 -24 -5 -35 -9 -11 -4 -38 -9 -60 -12 -22 -4 -47 -7 -55 -9 -9
-1 -21 -5 -28 -10 -6 -4 -16 -5 -21 -1 -5 3 -12 1 -16 -5 -3 -5 -17 -10 -31
-10 -14 0 -34 -5 -44 -10 -11 -6 -38 -11 -60 -13 -22 -1 -40 -5 -40 -8 0 -5
-92 -29 -117 -31 -5 0 -18 -4 -31 -9 -13 -5 -21 -5 -18 0 3 4 -6 14 -19 21
-26 14 -33 30 -14 30 5 0 7 5 3 11 -4 8 -9 7 -15 -2 -6 -10 -18 -2 -46 31 -21
24 -37 48 -35 53 1 5 -1 6 -6 3 -5 -3 -22 11 -38 30 -16 20 -37 45 -46 56 -10
11 -15 25 -12 30 3 4 2 7 -3 6 -4 -2 -10 2 -12 7 -2 6 -12 16 -22 23 -11 7
-19 20 -19 28 0 8 -4 14 -10 14 -5 0 -10 6 -10 14 0 8 -7 17 -16 20 -8 3 -12
10 -9 16 3 5 2 10 -3 10 -9 0 -76 115 -73 126 2 4 -1 10 -6 13 -23 16 -112
247 -116 300 -1 14 -5 28 -9 31 -4 3 -10 24 -12 45 -2 22 -7 47 -10 55 -3 8
-7 45 -9 81 -2 36 -7 71 -11 77 -4 7 -3 12 2 12 5 0 9 7 9 15 0 8 -4 15 -8 15
-9 0 -6 20 5 39 6 9 5 12 -1 8 -14 -9 -12 95 2 105 6 5 5 8 -3 8 -7 0 -10 5
-7 10 11 18 19 450 8 450 -5 0 -13 -4 -18 -9z m1345 -6860 c0 -5 -7 -11 -15
-15 -15 -5 -20 5 -8 17 9 10 23 9 23 -2z"/>
<path d="M975 6371 c-3 -5 -2 -12 3 -15 5 -3 9 1 9 9 0 17 -3 19 -12 6z"/>
<path d="M955 6320 c-3 -5 -1 -10 4 -10 6 0 11 5 11 10 0 6 -2 10 -4 10 -3 0
-8 -4 -11 -10z"/>
<path d="M759 6113 c-13 -16 -12 -17 4 -4 16 13 21 21 13 21 -2 0 -10 -8 -17
-17z"/>
<path d="M2193 5835 c0 -8 4 -12 9 -9 5 3 6 10 3 15 -9 13 -12 11 -12 -6z"/>
<path d="M3793 5525 c0 -8 4 -12 9 -9 5 3 6 10 3 15 -9 13 -12 11 -12 -6z"/>
<path d="M4829 5443 c-13 -16 -12 -17 4 -4 9 7 17 15 17 17 0 8 -8 3 -21 -13z"/>
<path d="M2516 5318 c3 -5 10 -6 15 -3 13 9 11 12 -6 12 -8 0 -12 -4 -9 -9z"/>
<path d="M2687 5279 c7 -7 15 -10 18 -7 3 3 -2 9 -12 12 -14 6 -15 5 -6 -5z"/>
<path d="M2796 5282 c-3 -5 1 -9 9 -9 8 0 12 4 9 9 -3 4 -7 8 -9 8 -2 0 -6 -4
-9 -8z"/>
<path d="M313 4995 c0 -8 4 -12 9 -9 4 3 8 9 8 15 0 5 -4 9 -8 9 -5 0 -9 -7
-9 -15z"/>
<path d="M276 4678 c3 -5 10 -6 15 -3 13 9 11 12 -6 12 -8 0 -12 -4 -9 -9z"/>
<path d="M6476 3833 c-6 -14 -5 -15 5 -6 7 7 10 15 7 18 -3 3 -9 -2 -12 -12z"/>
<path d="M513 3795 c0 -8 4 -12 9 -9 5 3 6 10 3 15 -9 13 -12 11 -12 -6z"/>
<path d="M6396 3693 c-6 -14 -5 -15 5 -6 7 7 10 15 7 18 -3 3 -9 -2 -12 -12z"/>
<path d="M6310 3600 c0 -5 5 -10 11 -10 5 0 7 5 4 10 -3 6 -8 10 -11 10 -2 0
-4 -4 -4 -10z"/>
<path d="M5195 3020 c3 -5 8 -10 11 -10 2 0 4 5 4 10 0 6 -5 10 -11 10 -5 0
-7 -4 -4 -10z"/>
<path d="M5016 2982 c-3 -5 1 -9 9 -9 8 0 12 4 9 9 -3 4 -7 8 -9 8 -2 0 -6 -4
-9 -8z"/>
<path d="M5055 2980 c3 -5 8 -10 11 -10 2 0 4 5 4 10 0 6 -5 10 -11 10 -5 0
-7 -4 -4 -10z"/>
<path d="M5086 2982 c-3 -5 1 -9 9 -9 8 0 12 4 9 9 -3 4 -7 8 -9 8 -2 0 -6 -4
-9 -8z"/>
<path d="M5195 2981 c-3 -5 -2 -12 3 -15 5 -3 9 1 9 9 0 17 -3 19 -12 6z"/>
<path d="M4933 2953 c0 -10 4 -10 16 -1 9 7 18 13 20 15 2 1 -5 1 -16 0 -11 0
-20 -7 -20 -14z"/>
<path d="M4810 2930 c-9 -6 -10 -10 -3 -10 6 0 15 5 18 10 8 12 4 12 -15 0z"/>
<path d="M4959 2893 c-13 -16 -12 -17 4 -4 16 13 21 21 13 21 -2 0 -10 -8 -17
-17z"/>
<path d="M4851 2886 c-9 -10 -8 -15 2 -19 8 -3 13 3 13 14 0 23 0 23 -15 5z"/>
<path d="M5030 2896 c0 -2 8 -10 18 -17 15 -13 16 -12 3 4 -13 16 -21 21 -21
13z"/>
<path d="M4810 2880 c0 -5 5 -10 10 -10 6 0 10 5 10 10 0 6 -4 10 -10 10 -5 0
-10 -4 -10 -10z"/>
<path d="M5080 2860 c-12 -7 -10 -9 7 -7 12 0 19 5 17 9 -6 10 -6 10 -24 -2z"/>
<path d="M4864 2842 c4 -3 14 -7 22 -8 9 -1 13 0 10 4 -4 3 -14 7 -22 8 -9 1
-13 0 -10 -4z"/>
<path d="M4980 2846 c0 -2 8 -10 18 -17 15 -13 16 -12 3 4 -13 16 -21 21 -21
13z"/>
<path d="M4945 2820 c-3 -6 1 -7 9 -4 18 7 21 14 7 14 -6 0 -13 -4 -16 -10z"/>
<path d="M5134 2822 c4 -3 14 -7 22 -8 9 -1 13 0 10 4 -4 3 -14 7 -22 8 -9 1
-13 0 -10 -4z"/>
<path d="M5196 2815 c-9 -26 -7 -32 5 -12 6 10 9 21 6 23 -2 3 -7 -2 -11 -11z"/>
<path d="M4790 2810 c0 -5 7 -7 15 -4 8 4 15 8 15 10 0 2 -7 4 -15 4 -8 0 -15
-4 -15 -10z"/>
<path d="M4893 2807 c0 -8 6 -14 14 -14 9 0 10 4 2 14 -6 7 -12 13 -14 13 -1
0 -2 -6 -2 -13z"/>
<path d="M4833 2795 c0 -8 4 -12 9 -9 5 3 6 10 3 15 -9 13 -12 11 -12 -6z"/>
<path d="M5067 2799 c7 -7 15 -10 18 -7 3 3 -2 9 -12 12 -14 6 -15 5 -6 -5z"/>
<path d="M5247 2799 c7 -7 15 -10 18 -7 3 3 -2 9 -12 12 -14 6 -15 5 -6 -5z"/>
<path d="M4925 2779 c-4 -6 -14 -8 -22 -4 -13 4 -14 3 -3 -10 7 -9 13 -14 14
-13 1 2 8 11 15 21 7 9 11 17 8 17 -3 0 -9 -5 -12 -11z"/>
<path d="M4956 2782 c-3 -5 1 -9 9 -9 8 0 12 4 9 9 -3 4 -7 8 -9 8 -2 0 -6 -4
-9 -8z"/>
<path d="M5030 2759 c0 -5 5 -7 10 -4 6 3 10 8 10 11 0 2 -4 4 -10 4 -5 0 -10
-5 -10 -11z"/>
<path d="M1850 2140 c0 -5 5 -10 11 -10 5 0 7 5 4 10 -3 6 -8 10 -11 10 -2 0
-4 -4 -4 -10z"/>
<path d="M1922 2104 c10 -10 20 -16 22 -13 3 3 -5 11 -17 18 -21 13 -21 12 -5
-5z"/>
<path d="M1995 2040 c3 -5 8 -10 11 -10 2 0 4 5 4 10 0 6 -5 10 -11 10 -5 0
-7 -4 -4 -10z"/>
<path d="M1935 2020 c-3 -5 -1 -10 4 -10 6 0 11 5 11 10 0 6 -2 10 -4 10 -3 0
-8 -4 -11 -10z"/>
<path d="M2015 2009 c-4 -6 -5 -12 -2 -15 2 -3 7 2 10 11 7 17 1 20 -8 4z"/>
<path d="M1975 1980 c3 -5 8 -10 11 -10 2 0 4 5 4 10 0 6 -5 10 -11 10 -5 0
-7 -4 -4 -10z"/>
<path d="M2068 1978 c5 -5 16 -8 23 -6 8 3 3 7 -10 11 -17 4 -21 3 -13 -5z"/>
<path d="M2009 1963 c-13 -16 -12 -17 4 -4 9 7 17 15 17 17 0 8 -8 3 -21 -13z"/>
<path d="M1966 1938 c3 -5 10 -6 15 -3 13 9 11 12 -6 12 -8 0 -12 -4 -9 -9z"/>
<path d="M2108 1943 c6 -2 9 -10 6 -15 -4 -7 -2 -8 5 -4 13 9 5 26 -12 25 -9
0 -8 -2 1 -6z"/>
<path d="M1995 1920 c-3 -5 -1 -10 4 -10 6 0 11 5 11 10 0 6 -2 10 -4 10 -3 0
-8 -4 -11 -10z"/>
<path d="M2080 1926 c0 -2 8 -10 18 -17 15 -13 16 -12 3 4 -13 16 -21 21 -21
13z"/>
<path d="M2131 1884 c0 -11 3 -14 6 -6 3 7 2 16 -1 19 -3 4 -6 -2 -5 -13z"/>
<path d="M2056 1878 c3 -5 10 -6 15 -3 13 9 11 12 -6 12 -8 0 -12 -4 -9 -9z"/>
<path d="M2075 1809 c-4 -6 -5 -12 -2 -15 2 -3 7 2 10 11 7 17 1 20 -8 4z"/>
<path d="M5835 1800 c-3 -5 -1 -10 4 -10 6 0 11 5 11 10 0 6 -2 10 -4 10 -3 0
-8 -4 -11 -10z"/>
<path d="M2095 1780 c-3 -5 -1 -10 4 -10 6 0 11 5 11 10 0 6 -2 10 -4 10 -3 0
-8 -4 -11 -10z"/>
<path d="M2095 1740 c3 -5 8 -10 11 -10 2 0 4 5 4 10 0 6 -5 10 -11 10 -5 0
-7 -4 -4 -10z"/>
<path d="M2135 1620 c3 -5 8 -10 11 -10 2 0 4 5 4 10 0 6 -5 10 -11 10 -5 0
-7 -4 -4 -10z"/>
<path d="M2135 1580 c3 -5 8 -10 11 -10 2 0 4 5 4 10 0 6 -5 10 -11 10 -5 0
-7 -4 -4 -10z"/>
<path d="M2066 1558 c3 -4 9 -8 15 -8 5 0 9 4 9 8 0 5 -7 9 -15 9 -8 0 -12 -4
-9 -9z"/>
<path d="M2126 1458 c3 -5 10 -6 15 -3 13 9 11 12 -6 12 -8 0 -12 -4 -9 -9z"/>
<path d="M5750 961 c0 -6 4 -13 10 -16 6 -3 7 1 4 9 -7 18 -14 21 -14 7z"/>
<path d="M4735 929 c-4 -6 -5 -12 -2 -15 2 -3 7 2 10 11 7 17 1 20 -8 4z"/>
<path d="M4845 920 c-3 -6 1 -7 9 -4 18 7 21 14 7 14 -6 0 -13 -4 -16 -10z"/>
<path d="M4653 751 c0 -11 5 -18 9 -15 4 3 5 11 1 19 -7 21 -12 19 -10 -4z"/>
<path d="M4695 760 c3 -5 8 -10 11 -10 2 0 4 5 4 10 0 6 -5 10 -11 10 -5 0 -7
-4 -4 -10z"/>
<path d="M4653 695 c0 -8 4 -12 9 -9 5 3 6 10 3 15 -9 13 -12 11 -12 -6z"/>
<path d="M4747 679 c7 -7 15 -10 18 -7 3 3 -2 9 -12 12 -14 6 -15 5 -6 -5z"/>
<path d="M4614 636 c1 -8 5 -18 8 -22 4 -3 5 1 4 10 -1 8 -5 18 -8 22 -4 3 -5
-1 -4 -10z"/>
<path d="M3193 139 c-1 -12 4 -19 15 -18 11 0 12 2 4 6 -6 2 -10 9 -7 13 3 5
2 11 -3 14 -4 2 -9 -4 -9 -15z"/>
<path d="M2613 135 c0 -8 4 -12 9 -9 5 3 6 10 3 15 -9 13 -12 11 -12 -6z"/>
<path d="M2865 140 c-3 -6 1 -7 9 -4 18 7 21 14 7 14 -6 0 -13 -4 -16 -10z"/>
<path d="M2914 133 c16 -20 36 -23 36 -6 0 4 -3 3 -7 0 -3 -4 -16 1 -27 10
-21 18 -21 18 -2 -4z"/>
<path d="M3027 133 c4 -10 2 -14 -4 -10 -6 4 -19 -3 -29 -16 -19 -22 -19 -22
2 -4 11 9 23 15 26 12 3 -3 10 1 17 9 9 11 8 15 -3 19 -11 4 -13 1 -9 -10z"/>
<path d="M3133 137 c-3 -5 -2 -11 1 -14 3 -4 6 -1 6 6 0 7 4 10 8 7 4 -2 14
-1 22 4 11 7 9 9 -8 7 -13 -1 -26 -5 -29 -10z"/>
<path d="M3262 130 c7 -10 14 -18 15 -16 6 6 -9 36 -18 36 -5 0 -4 -9 3 -20z"/>
<path d="M3508 133 c-10 -13 -5 -28 10 -28 4 -1 18 -7 30 -14 13 -7 26 -10 29
-8 2 3 -5 8 -16 12 -16 5 -18 11 -12 28 7 19 5 23 -11 23 -10 0 -24 -6 -30
-13z m32 -12 c0 -4 -7 -8 -15 -8 -16 0 -20 9 -9 20 8 8 24 -1 24 -12z"/>
<path d="M3578 139 c-20 -11 -24 -29 -7 -29 5 0 7 5 3 12 -5 8 -2 9 10 5 10
-4 15 -3 11 3 -3 6 -2 10 4 10 19 0 21 -19 4 -29 -10 -5 -14 -13 -10 -17 4 -4
14 2 23 14 18 26 30 28 38 6 5 -12 2 -15 -9 -10 -9 3 -13 2 -10 -4 3 -6 1 -10
-6 -10 -7 0 -10 -3 -7 -6 4 -3 16 -1 27 5 17 10 19 15 9 36 -9 19 -14 22 -25
14 -9 -9 -13 -8 -13 0 0 14 -19 14 -42 0z"/>
<path d="M3671 145 c0 -5 4 -19 9 -30 7 -16 9 -17 9 -3 1 9 4 18 9 21 4 2 2 2
-5 1 -6 -2 -14 2 -17 9 -2 7 -4 8 -5 2z"/>
<path d="M3815 140 c3 -5 8 -10 11 -10 2 0 4 5 4 10 0 6 -5 10 -11 10 -5 0 -7
-4 -4 -10z"/>
<path d="M3850 140 c-9 -6 -10 -10 -3 -10 6 0 15 5 18 10 8 12 4 12 -15 0z"/>
<path d="M4035 140 c-3 -5 -1 -10 4 -10 6 0 11 5 11 10 0 6 -2 10 -4 10 -3 0
-8 -4 -11 -10z"/>
<path d="M4100 146 c0 -2 8 -10 18 -17 15 -13 16 -12 3 4 -13 16 -21 21 -21
13z"/>
<path d="M2753 127 c0 -8 6 -14 14 -14 9 0 10 4 2 14 -6 7 -12 13 -14 13 -1 0
-2 -6 -2 -13z"/>
<path d="M3067 126 c-5 -11 -3 -15 5 -10 7 5 9 2 6 -8 -4 -8 -1 -15 7 -15 8 0
11 7 7 15 -4 11 -1 13 8 7 9 -5 11 -4 6 4 -4 6 -11 9 -16 6 -4 -3 -10 0 -12 7
-3 7 -7 5 -11 -6z"/>
<path d="M3716 124 c-7 -18 2 -37 14 -29 4 3 11 -2 14 -11 3 -8 10 -13 15 -10
5 4 12 1 14 -4 4 -7 5 -6 4 0 -2 7 -6 10 -10 8 -5 -2 -13 5 -18 15 -6 9 -15
15 -21 11 -6 -4 -8 1 -3 15 7 24 0 29 -9 5z"/>
<path d="M3160 120 c-9 -6 -10 -10 -3 -10 6 0 15 5 18 10 8 12 4 12 -15 0z"/>
<path d="M3754 118 c-4 -7 -4 -10 1 -6 4 4 14 0 21 -10 12 -15 12 -15 7 6 -6
24 -18 29 -29 10z"/>
<path d="M3790 119 c0 -5 5 -7 10 -4 6 3 10 8 10 11 0 2 -4 4 -10 4 -5 0 -10
-5 -10 -11z"/>
<path d="M3870 121 c0 -6 4 -13 10 -16 6 -3 7 1 4 9 -7 18 -14 21 -14 7z"/>
<path d="M3970 121 c0 -4 13 -7 30 -7 16 0 28 2 25 4 -8 9 -55 11 -55 3z"/>
<path d="M3475 110 c-3 -5 -1 -10 4 -10 6 0 11 5 11 10 0 6 -2 10 -4 10 -3 0
-8 -4 -11 -10z"/>
<path d="M3830 111 c0 -7 -5 -9 -12 -5 -7 4 -10 4 -6 0 3 -4 9 -7 13 -6 3 0
15 -9 26 -22 l20 -23 -17 30 c-24 40 -24 40 -24 26z"/>
<path d="M4215 111 c-3 -5 -2 -12 3 -15 5 -3 9 1 9 9 0 17 -3 19 -12 6z"/>
<path d="M3133 103 c4 -3 1 -13 -6 -22 -11 -14 -10 -14 5 -2 16 12 16 31 1 31
-4 0 -3 -3 0 -7z"/>
<path d="M3908 103 c6 -2 18 -2 25 0 6 3 1 5 -13 5 -14 0 -19 -2 -12 -5z"/>
<path d="M3953 95 c0 -8 4 -12 9 -9 5 3 6 10 3 15 -9 13 -12 11 -12 -6z"/>
<path d="M4105 100 c-3 -6 1 -7 9 -4 18 7 21 14 7 14 -6 0 -13 -4 -16 -10z"/>
<path d="M3004 78 l-19 -23 23 19 c12 11 22 21 22 23 0 8 -8 2 -26 -19z"/>
<path d="M4009 83 c-13 -16 -12 -17 4 -4 9 7 17 15 17 17 0 8 -8 3 -21 -13z"/>
<path d="M2600 80 c-9 -6 -10 -10 -3 -10 6 0 15 5 18 10 8 12 4 12 -15 0z"/>
<path d="M3035 81 c-3 -5 -2 -12 3 -15 5 -3 9 1 9 9 0 17 -3 19 -12 6z"/>
<path d="M3188 83 c7 -3 16 -2 19 1 4 3 -2 6 -13 5 -11 0 -14 -3 -6 -6z"/>
<path d="M3313 80 c-34 -14 -28 -21 7 -9 17 6 30 13 30 15 0 6 -12 4 -37 -6z"/>
<path d="M3490 80 c0 -5 5 -10 10 -10 6 0 10 5 10 10 0 6 -4 10 -10 10 -5 0
-10 -4 -10 -10z"/>
<path d="M3527 79 c7 -7 15 -10 18 -7 3 3 -2 9 -12 12 -14 6 -15 5 -6 -5z"/>
<path d="M3670 81 c0 -10 19 -25 25 -20 1 2 -3 10 -11 17 -8 7 -14 8 -14 3z"/>
<path d="M3911 87 c2 -1 13 -9 24 -17 19 -14 19 -14 6 3 -7 9 -18 17 -24 17
-6 0 -8 -1 -6 -3z"/>
<path d="M2895 71 c-3 -5 -2 -12 3 -15 5 -3 9 1 9 9 0 17 -3 19 -12 6z"/>
<path d="M3151 67 c-8 -10 -7 -14 2 -14 8 0 14 6 14 14 0 7 -1 13 -2 13 -2 0
-8 -6 -14 -13z"/>
<path d="M3593 65 c0 -8 4 -15 9 -15 4 0 8 4 8 9 0 6 -4 12 -8 15 -5 3 -9 -1
-9 -9z"/>
<path d="M2856 58 c3 -5 10 -6 15 -3 13 9 11 12 -6 12 -8 0 -12 -4 -9 -9z"/>
<path d="M3186 61 c-4 -5 3 -7 14 -4 23 6 26 13 6 13 -8 0 -17 -4 -20 -9z"/>
<path d="M3333 56 c-3 -5 -1 -6 5 -2 16 10 15 -6 0 -24 -11 -12 -10 -12 5 -1
14 11 20 11 35 0 13 -10 12 -8 -3 10 -18 22 -18 24 -2 18 10 -4 16 -3 12 2 -7
12 -45 10 -52 -3z"/>
<path d="M3459 68 c-7 -23 -5 -39 4 -45 7 -3 9 -3 5 2 -4 4 0 14 10 22 16 12
16 13 -2 6 -13 -4 -17 -3 -12 5 4 7 5 12 2 12 -3 0 -6 -1 -7 -2z"/>
<path d="M3800 55 c-7 -9 -11 -17 -9 -20 3 -2 10 5 17 15 14 24 10 26 -8 5z"/>
<path d="M4176 58 c3 -4 11 -5 19 -1 21 7 19 12 -4 10 -11 0 -18 -5 -15 -9z"/>
<path d="M3255 50 c-4 -6 -10 -8 -15 -5 -5 3 -11 1 -14 -4 -8 -13 22 -7 36 7
7 7 9 12 6 12 -4 0 -10 -5 -13 -10z"/>
<path d="M3546 43 c-6 -14 -5 -15 5 -6 7 7 10 15 7 18 -3 3 -9 -2 -12 -12z"/>
<path d="M3030 41 c0 -6 4 -13 10 -16 6 -3 7 1 4 9 -7 18 -14 21 -14 7z"/>
<path d="M3280 46 c0 -2 8 -10 18 -17 15 -13 16 -12 3 4 -13 16 -21 21 -21 13z"/>
<path d="M3420 35 c-11 -13 -10 -14 4 -9 9 3 16 10 16 15 0 13 -6 11 -20 -6z"/>
<path d="M3680 45 c0 -2 6 -8 13 -14 10 -8 14 -7 14 2 0 8 -6 14 -14 14 -7 0
-13 -1 -13 -2z"/>
<path d="M3816 33 c-6 -14 -5 -15 5 -6 7 7 10 15 7 18 -3 3 -9 -2 -12 -12z"/>
<path d="M3916 38 c3 -5 10 -6 15 -3 13 9 11 12 -6 12 -8 0 -12 -4 -9 -9z"/>
<path d="M3995 40 c3 -5 8 -10 11 -10 2 0 4 5 4 10 0 6 -5 10 -11 10 -5 0 -7
-4 -4 -10z"/>
<path d="M4095 40 c-3 -5 -1 -10 4 -10 6 0 11 5 11 10 0 6 -2 10 -4 10 -3 0
-8 -4 -11 -10z"/>
<path d="M2933 15 c0 -8 4 -12 9 -9 5 3 6 10 3 15 -9 13 -12 11 -12 -6z"/>
<path d="M3270 21 c0 -6 4 -13 10 -16 6 -3 7 1 4 9 -7 18 -14 21 -14 7z"/>
</g>
</svg>
